<svg width="1280" height="720" xmlns="http://www.w3.org/2000/svg" xmlns:xlink="http://www.w3.org/1999/xlink" overflow="hidden"><defs><filter id="fx0" x="-10%" y="-10%" width="120%" height="120%" filterUnits="userSpaceOnUse" primitiveUnits="userSpaceOnUse"><feComponentTransfer color-interpolation-filters="sRGB"><feFuncR type="discrete" tableValues="0.25098 0.25098"/><feFuncG type="discrete" tableValues="0.25098 0.25098"/><feFuncB type="discrete" tableValues="0.25098 0.25098"/><feFuncA type="linear" slope="0.439216" intercept="0"/></feComponentTransfer><feGaussianBlur stdDeviation="6.67137 6.73139"/></filter><clipPath id="clip1"><rect x="0" y="0" width="1280" height="720"/></clipPath><clipPath id="clip2"><path d="M19.6674 9.50006C15.709 9.50006 12.5001 12.709 12.5001 16.6674L12.5001 52.5001 1268.5 52.5001 1268.5 16.6674C1268.5 12.709 1265.29 9.50006 1261.33 9.50006ZM1.90735e-05 1.07288e-05 1280 1.07288e-05 1280 720 1.90735e-05 720Z" fill-rule="evenodd" clip-rule="evenodd"/></clipPath><clipPath id="clip3"><rect x="0" y="0" width="355" height="52"/></clipPath></defs><g clip-path="url(#clip1)"><rect x="0" y="0" width="1280" height="720" fill="#D9D9D9"/><g clip-path="url(#clip2)"><g filter="url(#fx0)" transform="matrix(3.99718 0 0 3.96154 -69 -68)"><g clip-path="url(#clip3)"><path d="M22.1825 20.5728 332.818 20.5728C333.808 20.5728 334.611 21.3828 334.611 22.3821L334.611 31.4272 20.3894 31.4272 20.3894 22.3821C20.3894 21.3828 21.1922 20.5728 22.1825 20.5728Z" stroke="#F2F2F2" stroke-miterlimit="8" fill="#F2F2F2" fill-rule="evenodd"/></g></g></g><path d="M19.6674 9.50005 1261.33 9.50005C1265.29 9.50005 1268.5 12.709 1268.5 16.6674L1268.5 52.5 12.5001 52.5 12.5001 16.6674C12.5001 12.709 15.709 9.50005 19.6674 9.50005Z" stroke="#F2F2F2" stroke-width="1.33333" stroke-miterlimit="8" fill="#F2F2F2" fill-rule="evenodd"/><path d="M12.5001 72.6681C12.5001 68.7093 15.7093 65.5001 19.6681 65.5001L633.332 65.5001C637.291 65.5001 640.5 68.7093 640.5 72.6681L640.5 352.332C640.5 356.291 637.291 359.5 633.332 359.5L19.6681 359.5C15.7093 359.5 12.5001 356.291 12.5001 352.332Z" stroke="#F2F2F2" stroke-width="1.33333" stroke-miterlimit="8" fill="#F2F2F2" fill-rule="evenodd"/><path d="M12.5001 379.716C12.5001 375.179 16.1785 371.5 20.7161 371.5L632.284 371.5C636.822 371.5 640.5 375.179 640.5 379.716L640.5 700.284C640.5 704.822 636.822 708.5 632.284 708.5L20.7161 708.5C16.1785 708.5 12.5001 704.822 12.5001 700.284Z" stroke="#F2F2F2" stroke-width="1.33333" stroke-miterlimit="8" fill="#F2F2F2" fill-rule="evenodd"/><path d="M655.5 71.9512C655.5 68.3883 658.388 65.5001 661.951 65.5001L1262.05 65.5001C1265.61 65.5001 1268.5 68.3883 1268.5 71.9512L1268.5 145.049C1268.5 148.612 1265.61 151.5 1262.05 151.5L661.951 151.5C658.388 151.5 655.5 148.612 655.5 145.049Z" stroke="#F2F2F2" stroke-width="1.33333" stroke-miterlimit="8" fill="#F2F2F2" fill-rule="evenodd"/><path d="M655.5 171.814C655.5 167.222 659.222 163.5 663.813 163.5L1260.19 163.5C1264.78 163.5 1268.5 167.222 1268.5 171.814L1268.5 496.187C1268.5 500.778 1264.78 504.5 1260.19 504.5L663.813 504.5C659.222 504.5 655.5 500.778 655.5 496.187Z" stroke="#F2F2F2" stroke-width="1.33333" stroke-miterlimit="8" fill="#F2F2F2" fill-rule="evenodd"/><path d="M655.5 521.181C655.5 518.596 657.596 516.5 660.181 516.5L1263.82 516.5C1266.4 516.5 1268.5 518.596 1268.5 521.181L1268.5 703.819C1268.5 706.404 1266.4 708.5 1263.82 708.5L660.181 708.5C657.596 708.5 655.5 706.404 655.5 703.819Z" stroke="#F2F2F2" stroke-width="1.33333" stroke-miterlimit="8" fill="#F2F2F2" fill-rule="evenodd"/><g><g><g><path d="M49.1896 43.4667 50.1458 28.3792 51.1375 41.5187 49.1896 43.4667ZM46.9938 44.4583 32.8271 44.4583 34.0667 24.625 35.625 24.625 35.625 27.4583C35.625 27.8479 35.9437 28.1667 36.3333 28.1667 36.7229 28.1667 37.0417 27.8479 37.0417 27.4583L37.0417 24.625 44.125 24.625 44.125 27.4583C44.125 27.8479 44.4437 28.1667 44.8333 28.1667 45.2229 28.1667 45.5417 27.8479 45.5417 27.4583L45.5417 24.625 48.2333 24.625 46.9938 44.4583ZM37.0417 21.0833C37.0417 19.4542 38.1396 18.1083 39.6271 17.6833 39.0958 18.4625 38.8125 19.3833 38.8125 20.375L38.8125 22.5 37.0417 22.5 37.0417 21.0833ZM41.5042 17.6479C43.0271 18.0375 44.125 19.4188 44.125 21.0833L44.125 22.5 40.2292 22.5 40.2292 20.375C40.2292 19.2771 40.725 18.3208 41.5042 17.6479ZM43.7708 16.8333C45.7188 16.8333 47.3125 18.4271 47.3125 20.375L47.3125 22.5 45.5417 22.5 45.5417 21.0833C45.5417 19.3125 44.6208 17.7542 43.2042 16.8687 43.3812 16.8687 43.5938 16.8333 43.7708 16.8333ZM51.9167 23.8458C51.8812 23.1021 51.2438 22.5 50.5 22.5L48.9771 22.5C49.6854 22.5 50.2875 23.0312 50.3937 23.7042 50.2875 23.0312 49.7208 22.5 48.9771 22.5L48.7292 22.5 48.7292 20.375C48.7292 17.6479 46.4979 15.4167 43.7708 15.4167 42.8146 15.4167 41.9292 15.7 41.1854 16.1604 40.9729 16.125 40.7958 16.125 40.5833 16.125 37.8563 16.125 35.625 18.3563 35.625 21.0833L35.625 22.5 33.4292 22.5C32.6854 22.5 32.0479 23.0667 32.0125 23.8458L30.7021 45.0958C30.6667 45.9104 31.3042 46.5833 32.1188 46.5833L47.7021 46.5833 48.5167 46.5833C48.9062 46.5833 49.2958 46.4062 49.5438 46.1229L52.9083 42.7938C53.1917 42.5104 53.3687 42.0854 53.3333 41.6958L51.9167 23.8458Z"/></g></g></g><text font-family="Aptos,Aptos_MSFontService,sans-serif" font-weight="700" font-size="24" transform="translate(68.9751 40)">Análisis</text><text font-family="Aptos,Aptos_MSFontService,sans-serif" font-weight="700" font-size="24" transform="translate(165.308 40)">de</text><text font-family="Aptos,Aptos_MSFontService,sans-serif" font-weight="700" font-size="24" transform="translate(202.308 40)">Superstore</text><text font-family="Aptos,Aptos_MSFontService,sans-serif" font-weight="700" font-size="24" transform="translate(1080.39 40)">Osvaldo Roche</text><g><g><g><path d="M1054.71 24.625 1053.29 24.625C1052.51 24.625 1051.88 23.9875 1051.88 23.2083L1051.88 20.375C1051.88 19.5958 1052.51 18.9583 1053.29 18.9583L1054.71 18.9583C1055.49 18.9583 1056.12 19.5958 1056.12 20.375L1056.12 23.2083C1056.12 23.9875 1055.49 24.625 1054.71 24.625Z"/><path d="M1065.33 31.7083 1056.83 31.7083 1056.83 30.2917 1065.33 30.2917 1065.33 31.7083ZM1065.33 35.9583 1056.83 35.9583 1056.83 34.5417 1065.33 34.5417 1065.33 35.9583ZM1065.33 40.2083 1056.83 40.2083 1056.83 38.7917 1065.33 38.7917 1065.33 40.2083ZM1054 40.2083 1042.67 40.2083 1042.67 37.375C1042.67 36.95 1042.88 36.525 1043.23 36.2417 1044.01 35.675 1045 35.1792 1046 34.8958 1046.78 34.6833 1047.55 34.5417 1048.33 34.5417 1049.18 34.5417 1049.96 34.6833 1050.67 34.8958 1051.66 35.1792 1052.65 35.6042 1053.43 36.2417 1053.79 36.525 1054 36.95 1054 37.375L1054 40.2083ZM1048.33 28.1667C1049.89 28.1667 1051.17 29.4417 1051.17 31 1051.17 32.5583 1049.89 33.8333 1048.33 33.8333 1046.78 33.8333 1045.5 32.5583 1045.5 31 1045.5 29.4417 1046.78 28.1667 1048.33 28.1667ZM1066.75 23.2083 1057.54 23.2083C1057.54 24.7667 1056.27 26.0417 1054.71 26.0417L1053.29 26.0417C1051.73 26.0417 1050.46 24.7667 1050.46 23.2083L1041.25 23.2083C1040.47 23.2083 1039.83 23.8458 1039.83 24.625L1039.83 41.625C1039.83 42.4042 1040.47 43.0417 1041.25 43.0417L1066.75 43.0417C1067.53 43.0417 1068.17 42.4042 1068.17 41.625L1068.17 24.625C1068.17 23.8458 1067.53 23.2083 1066.75 23.2083Z"/></g></g></g></g></svg>