<svg width="615" height="346" xmlns="http://www.w3.org/2000/svg" xmlns:xlink="http://www.w3.org/1999/xlink" overflow="hidden"><defs><filter id="fx0" x="-10%" y="-10%" width="120%" height="120%" filterUnits="userSpaceOnUse" primitiveUnits="userSpaceOnUse"><feComponentTransfer color-interpolation-filters="sRGB"><feFuncR type="discrete" tableValues="0 0"/><feFuncG type="discrete" tableValues="0 0"/><feFuncB type="discrete" tableValues="0 0"/><feFuncA type="linear" slope="0.14902" intercept="0"/></feComponentTransfer><feGaussianBlur stdDeviation="2.22403 2.22544"/></filter><filter id="fx1" x="-10%" y="-10%" width="120%" height="120%" filterUnits="userSpaceOnUse" primitiveUnits="userSpaceOnUse"><feComponentTransfer color-interpolation-filters="sRGB"><feFuncR type="discrete" tableValues="0 0"/><feFuncG type="discrete" tableValues="0 0"/><feFuncB type="discrete" tableValues="0 0"/><feFuncA type="linear" slope="0.14902" intercept="0"/></feComponentTransfer><feGaussianBlur stdDeviation="2.22403 2.22544"/></filter><filter id="fx2" x="-10%" y="-10%" width="120%" height="120%" filterUnits="userSpaceOnUse" primitiveUnits="userSpaceOnUse"><feComponentTransfer color-interpolation-filters="sRGB"><feFuncR type="discrete" tableValues="0 0"/><feFuncG type="discrete" tableValues="0 0"/><feFuncB type="discrete" tableValues="0 0"/><feFuncA type="linear" slope="0.14902" intercept="0"/></feComponentTransfer><feGaussianBlur stdDeviation="2.22403 2.22544"/></filter><filter id="fx3" x="-10%" y="-10%" width="120%" height="120%" filterUnits="userSpaceOnUse" primitiveUnits="userSpaceOnUse"><feComponentTransfer color-interpolation-filters="sRGB"><feFuncR type="discrete" tableValues="0 0"/><feFuncG type="discrete" tableValues="0 0"/><feFuncB type="discrete" tableValues="0 0"/><feFuncA type="linear" slope="0.14902" intercept="0"/></feComponentTransfer><feGaussianBlur stdDeviation="2.22403 2.22544"/></filter><filter id="fx4" x="-10%" y="-10%" width="120%" height="120%" filterUnits="userSpaceOnUse" primitiveUnits="userSpaceOnUse"><feComponentTransfer color-interpolation-filters="sRGB"><feFuncR type="discrete" tableValues="0 0"/><feFuncG type="discrete" tableValues="0 0"/><feFuncB type="discrete" tableValues="0 0"/><feFuncA type="linear" slope="0.14902" intercept="0"/></feComponentTransfer><feGaussianBlur stdDeviation="2.22403 2.22544"/></filter><filter id="fx5" x="-10%" y="-10%" width="120%" height="120%" filterUnits="userSpaceOnUse" primitiveUnits="userSpaceOnUse"><feComponentTransfer color-interpolation-filters="sRGB"><feFuncR type="discrete" tableValues="0 0"/><feFuncG type="discrete" tableValues="0 0"/><feFuncB type="discrete" tableValues="0 0"/><feFuncA type="linear" slope="0.14902" intercept="0"/></feComponentTransfer><feGaussianBlur stdDeviation="2.22403 2.22544"/></filter><filter id="fx6" x="-10%" y="-10%" width="120%" height="120%" filterUnits="userSpaceOnUse" primitiveUnits="userSpaceOnUse"><feComponentTransfer color-interpolation-filters="sRGB"><feFuncR type="discrete" tableValues="0 0"/><feFuncG type="discrete" tableValues="0 0"/><feFuncB type="discrete" tableValues="0 0"/><feFuncA type="linear" slope="0.14902" intercept="0"/></feComponentTransfer><feGaussianBlur stdDeviation="2.22403 2.22544"/></filter><clipPath id="clip7"><rect x="0" y="0" width="615" height="346"/></clipPath></defs><g clip-path="url(#clip7)"><rect x="0" y="0" width="615" height="346.219" fill="#FFFFFF"/><g filter="url(#fx0)" transform="translate(7 19)"><g><path d="M8.00002 10.3622C8.00002 9.06704 9.04929 8.0171 10.3436 8.0171L95.6564 8.0171C96.9507 8.0171 98 9.06704 98 10.3622L98 143.759C98 145.054 96.9507 146.104 95.6564 146.104L10.3436 146.104C9.04929 146.104 8.00002 145.054 8.00002 143.759Z" fill="#F5F5F7" fill-rule="evenodd"/></g></g><path d="M15 29.3622C15 28.067 16.0493 27.0171 17.3436 27.0171L102.656 27.0171C103.951 27.0171 105 28.067 105 29.3622L105 162.759C105 164.054 103.951 165.104 102.656 165.104L17.3436 165.104C16.0493 165.104 15 164.054 15 162.759Z" fill="#F5F5F7" fill-rule="evenodd"/><g filter="url(#fx1)" transform="translate(7 173)"><g><path d="M8.00002 12.1532C8.00002 9.92272 9.80706 8.11453 12.0362 8.11453L394.964 8.11453C397.193 8.11453 399 9.92272 399 12.1532L399 159.174C399 161.404 397.193 163.213 394.964 163.213L12.0362 163.213C9.80706 163.213 8.00002 161.404 8.00002 159.174Z" fill="#F5F5F7" fill-rule="evenodd"/></g></g><path d="M15 185.153C15 182.923 16.8071 181.115 19.0362 181.115L401.964 181.115C404.193 181.115 406 182.923 406 185.153L406 332.174C406 334.404 404.193 336.213 401.964 336.213L19.0362 336.213C16.8071 336.213 15 334.404 15 332.174Z" fill="#F5F5F7" fill-rule="evenodd"/><g filter="url(#fx2)" transform="translate(408 19)"><g><path d="M8.00006 12.0299C8.00006 9.81367 9.79549 8.0171 12.0103 8.0171L187.99 8.0171C190.205 8.0171 192 9.81367 192 12.0299L192 158.102C192 160.318 190.205 162.115 187.99 162.115L12.0103 162.115C9.79549 162.115 8.00006 160.318 8.00006 158.102Z" fill="#F5F5F7" fill-rule="evenodd"/></g></g><path d="M416 31.0299C416 28.8137 417.796 27.0171 420.01 27.0171L595.99 27.0171C598.205 27.0171 600 28.8137 600 31.0299L600 177.102C600 179.318 598.205 181.115 595.99 181.115L420.01 181.115C417.796 181.115 416 179.318 416 177.102Z" fill="#F5F5F7" fill-rule="evenodd"/><g filter="url(#fx3)" transform="translate(107 19)"><g><path d="M7.99995 10.3621C7.99995 9.06701 9.0492 8.0171 10.3435 8.0171L95.6565 8.0171C96.9508 8.0171 98.0001 9.06701 98.0001 10.3621L98.0001 142.759C98.0001 144.054 96.9508 145.104 95.6565 145.104L10.3435 145.104C9.0492 145.104 7.99995 144.054 7.99995 142.759Z" fill="#F5F5F7" fill-rule="evenodd"/></g></g><path d="M115 29.3621C115 28.067 116.049 27.0171 117.344 27.0171L202.656 27.0171C203.951 27.0171 205 28.067 205 29.3621L205 161.759C205 163.054 203.951 164.104 202.656 164.104L117.344 164.104C116.049 164.104 115 163.054 115 161.759Z" fill="#F5F5F7" fill-rule="evenodd"/><g filter="url(#fx4)" transform="translate(207 19)"><g><path d="M8 10.3882C8 9.07869 9.06092 8.0171 10.3696 8.0171L96.6303 8.0171C97.939 8.0171 99 9.07869 99 10.3882L99 142.733C99 144.042 97.939 145.104 96.6303 145.104L10.3696 145.104C9.06092 145.104 8 144.042 8 142.733Z" fill="#F5F5F7" fill-rule="evenodd"/></g></g><path d="M215 29.3882C215 28.0787 216.061 27.0171 217.37 27.0171L303.63 27.0171C304.939 27.0171 306 28.0787 306 29.3882L306 161.733C306 163.042 304.939 164.104 303.63 164.104L217.37 164.104C216.061 164.104 215 163.042 215 161.733Z" fill="#F5F5F7" fill-rule="evenodd"/><g filter="url(#fx5)" transform="translate(308 19)"><g><path d="M8 10.3621C8 9.06701 9.04925 8.0171 10.3436 8.0171L95.6566 8.0171C96.9509 8.0171 98.0001 9.06701 98.0001 10.3621L98.0001 142.759C98.0001 144.054 96.9509 145.104 95.6566 145.104L10.3436 145.104C9.04925 145.104 8 144.054 8 142.759Z" fill="#F5F5F7" fill-rule="evenodd"/></g></g><path d="M316 29.3621C316 28.067 317.049 27.0171 318.344 27.0171L403.657 27.0171C404.951 27.0171 406 28.067 406 29.3621L406 161.759C406 163.054 404.951 164.104 403.657 164.104L318.344 164.104C317.049 164.104 316 163.054 316 161.759Z" fill="#F5F5F7" fill-rule="evenodd"/><g filter="url(#fx6)" transform="translate(408 184)"><g><path d="M8.00006 11.8737C8.00006 9.80144 9.67892 8.12152 11.7499 8.12152L188.25 8.12152C190.321 8.12152 192 9.80144 192 11.8737L192 148.46C192 150.533 190.321 152.213 188.25 152.213L11.7499 152.213C9.67892 152.213 8.00006 150.533 8.00006 148.46Z" fill="#F5F5F7" fill-rule="evenodd"/></g></g><path d="M416 195.874C416 193.801 417.679 192.122 419.75 192.122L596.25 192.122C598.321 192.122 600 193.801 600 195.874L600 332.46C600 334.533 598.321 336.213 596.25 336.213L419.75 336.213C417.679 336.213 416 334.533 416 332.46Z" fill="#F5F5F7" fill-rule="evenodd"/></g></svg>