<?xml version="1.0" standalone="no"?>
<!DOCTYPE svg PUBLIC "-//W3C//DTD SVG 20010904//EN"
 "http://www.w3.org/TR/2001/REC-SVG-20010904/DTD/svg10.dtd">
<svg version="1.0" xmlns="http://www.w3.org/2000/svg"
 width="512.000000pt" height="512.000000pt" viewBox="0 0 512.000000 512.000000"
 preserveAspectRatio="xMidYMid meet">

<g transform="translate(0.000000,512.000000) scale(0.100000,-0.100000)"
fill="#000000" stroke="none">
<path d="M0 2560 l0 -2560 2560 0 2560 0 0 2560 0 2560 -2560 0 -2560 0 0
-2560z m3708 2370 c240 -68 437 -258 512 -494 l24 -76 261 0 c242 0 262 -1
293 -20 101 -62 97 -213 -8 -274 -32 -19 -54 -21 -292 -24 l-257 -3 -16 -57
c-89 -304 -396 -532 -719 -532 -254 0 -484 123 -629 335 -42 60 -107 205 -107
237 0 17 -69 18 -1202 20 -1193 3 -1203 3 -1238 24 -102 59 -109 208 -13 271
26 17 92 18 1237 23 l1210 5 17 55 c70 228 248 416 471 496 133 48 316 54 456
14z m-1899 -1641 c150 -38 300 -135 396 -257 54 -68 117 -189 136 -261 l13
-51 1195 0 c1177 0 1195 0 1235 -20 62 -31 81 -63 81 -140 0 -77 -19 -109 -81
-140 -40 -20 -58 -20 -1235 -20 l-1195 0 -13 -51 c-8 -29 -31 -86 -52 -128
-130 -258 -379 -412 -669 -413 -262 -2 -500 129 -642 352 -34 54 -80 157 -93
213 l-7 27 -251 0 c-231 0 -254 2 -291 20 -57 28 -79 63 -84 130 -4 71 19 116
78 147 42 22 52 23 295 23 l253 0 7 28 c13 55 59 158 93 212 179 282 505 411
831 329z m1846 -1634 c268 -57 496 -263 570 -517 l16 -57 257 -3 c238 -3 260
-5 292 -24 105 -61 109 -212 8 -274 -31 -19 -51 -20 -293 -20 l-261 0 -24 -76
c-76 -242 -277 -431 -531 -500 -88 -24 -280 -25 -369 -1 -256 68 -462 266
-539 517 l-17 55 -1210 5 c-1145 5 -1211 6 -1237 23 -96 63 -89 212 13 271 35
21 45 21 1236 24 l1202 2 5 28 c20 101 106 250 196 340 179 179 442 258 686
207z"/>
<path d="M3393 4625 c-124 -34 -222 -115 -280 -232 -31 -63 -37 -87 -41 -158
-8 -142 33 -248 129 -340 119 -114 275 -153 426 -107 212 65 341 270 305 482
-44 258 -293 421 -539 355z"/>
<path d="M1540 2989 c-82 -13 -171 -63 -235 -130 -164 -172 -164 -426 0 -598
270 -283 745 -92 745 299 0 215 -153 395 -367 430 -65 11 -67 11 -143 -1z"/>
<path d="M3385 1336 c-151 -48 -268 -170 -306 -319 -6 -27 -10 -84 -7 -132 19
-366 469 -537 734 -279 236 229 140 627 -174 724 -73 23 -185 25 -247 6z"/>
</g>
</svg>
