<?xml version="1.0" standalone="no"?>
<!DOCTYPE svg PUBLIC "-//W3C//DTD SVG 20010904//EN"
 "http://www.w3.org/TR/2001/REC-SVG-20010904/DTD/svg10.dtd">
<svg version="1.0" xmlns="http://www.w3.org/2000/svg"
 width="512.000000pt" height="512.000000pt" viewBox="0 0 512.000000 512.000000"
 preserveAspectRatio="xMidYMid meet">

<g transform="translate(0.000000,512.000000) scale(0.100000,-0.100000)"
fill="#000000" stroke="none">
<path d="M0 2560 l0 -2560 2560 0 2560 0 0 2560 0 2560 -2007 0 -2008 0 45
-21 c35 -15 372 -346 1553 -1527 850 -849 1520 -1526 1534 -1551 55 -91 23
-217 -69 -278 -56 -37 -148 -44 -204 -15 -22 12 -176 158 -349 331 l-310 311
-52 -52 -53 -52 0 -561 c0 -611 -1 -630 -57 -725 -56 -95 -107 -131 -371 -264
-136 -68 -272 -131 -302 -140 -121 -37 -278 -12 -382 60 -51 36 -113 117 -141
186 -22 52 -22 60 -25 748 l-3 695 -603 605 c-623 624 -633 635 -662 745 -20
74 -19 461 1 540 22 82 60 147 120 204 90 85 189 121 334 121 l86 0 -152 153
c-149 150 -174 183 -187 243 -17 77 47 188 128 225 40 18 34 19 -471 19 l-513
0 0 -2560z m4153 1905 c81 -21 132 -49 192 -106 113 -107 135 -186 135 -479 0
-227 -7 -274 -52 -365 -25 -49 -459 -488 -504 -510 -36 -17 -120 -20 -157 -6
-38 15 -96 70 -118 112 -25 50 -25 128 0 177 11 20 105 122 210 227 l191 190
0 172 0 173 -640 0 c-437 0 -656 4 -692 11 -133 29 -196 180 -130 310 22 45
36 59 81 82 l55 27 686 0 c576 0 695 -2 743 -15z"/>
<path d="M1070 3878 l0 -173 599 -600 c370 -371 609 -618 625 -646 53 -94 56
-128 56 -826 0 -354 3 -643 7 -643 5 0 99 45 210 101 l203 100 0 542 c0 695
-2 685 161 852 l78 81 -692 692 -692 692 -278 0 -277 0 0 -172z"/>
</g>
</svg>
